<svg xmlns="http://www.w3.org/2000/svg" width="380" height="380" viewBox="0 0 380 380"><g id="Group_4" data-name="Group 4" transform="translate(-145 -591)"><circle id="Ellipse_1" cx="190" cy="190" r="190" fill="#39465e" data-name="Ellipse 1" transform="translate(145 591)"/><g id="notebook-and-mouse-cursor" transform="translate(221 651.408)"><g id="Group_3" data-name="Group 3" transform="translate(0 33.592)"><g id="Group_2" data-name="Group 2"><path id="Path_3" fill="#e7eced" d="M227.242,214.22,213.1,157.662a9.5,9.5,0,0,0-1-2.463,21.125,21.125,0,0,0,1.252-7.176V54.794a21.226,21.226,0,0,0-21.2-21.2H35.493a21.226,21.226,0,0,0-21.2,21.2v93.229a21.076,21.076,0,0,0,1.254,7.176,9.471,9.471,0,0,0-1.006,2.462L.284,214.675A9.5,9.5,0,0,0,9.5,226.482H218.147a9.508,9.508,0,0,0,9.1-12.262Zm-89.34-2.594a.021.021,0,0,1-.008,0H89.746a1.877,1.877,0,0,1-1.846-2.209l3.752-20.822a1.875,1.875,0,0,1,1.846-1.543h40.645a1.874,1.874,0,0,1,1.845,1.543l3.721,20.656a1.876,1.876,0,0,1-1.807,2.376Zm56.929-63.6a2.687,2.687,0,0,1-1.573,2.441H34.381a2.686,2.686,0,0,1-1.574-2.441V54.794a2.688,2.688,0,0,1,2.686-2.684H192.148a2.688,2.688,0,0,1,2.684,2.684v93.23Z" data-name="Path 3" transform="translate(0 -33.592)"/><path id="Path_4" fill="#e7eced" d="M206.664,140.732l5.935-1.619a2.813,2.813,0,0,0,.258-5.345l-27.369-10.381a2.813,2.813,0,0,0-3.628,3.628l10.381,27.369a2.813,2.813,0,0,0,5.345-.257l1.619-5.935,13.848,13.847a2.812,2.812,0,0,0,3.978,0l3.481-3.481a2.814,2.814,0,0,0,0-3.979Z" data-name="Path 4" transform="translate(-87.68 -76.841)"/></g></g></g></g></svg>