<svg id="Layer_1" data-name="Layer 1" xmlns="http://www.w3.org/2000/svg" viewBox="0 0 511.85 512"><defs><style>.cls-1{fill:#fff;}.cls-2{fill:#f8fcff;}</style></defs><title>no-entry1</title><path class="cls-1" d="M437.33,75.44C387.8,25.92,322.36,0,256.93,0S126.05,25.92,76.52,75.44c-100.69,100.7-100.69,260.12,0,360.81,49.83,49.83,115,75.75,180.41,75.75s130.57-25.92,180.4-75.75C538,335.56,538,176.14,437.33,75.44ZM118.84,117.77C157,80,206.8,59.43,256.93,59.43c39.32,0,78.94,13,113.16,37.33L256.93,209.92,97.83,369C41.49,289.4,49.75,187.17,118.84,117.77ZM395,393.93c-38.12,37.82-87.95,58.34-138.07,58.34-39.33,0-79-13-113.17-37.33L416,142.68C472.36,222.29,464.11,324.52,395,393.93Z" transform="translate(-1)"/><path class="cls-2" d="M437.33,436.25C387.5,486.08,322.36,512,256.93,512V452.27c50.12,0,100-20.52,138.07-58.34,69.11-69.41,77.36-171.64,21-251.25L256.93,301.78V209.92L370.09,96.76c-34.22-24.32-73.84-37.33-113.16-37.33V0c65.43,0,130.87,25.92,180.4,75.44C538,176.14,538,335.56,437.33,436.25Z" transform="translate(-1)"/></svg>