<svg xmlns="http://www.w3.org/2000/svg" width="381.901" height="381.915" viewBox="0 0 381.901 381.915">
  <g id="Group_5" data-name="Group 5" transform="translate(-616.549 -378.542)">
    <path id="Path_1" data-name="Path 1" d="M75.559,249.768,18.581,280.847a51.2,51.2,0,0,0-9.144,6.507,190.836,190.836,0,0,0,245.2.634,50.549,50.549,0,0,0-10.045-6.73l-61.013-30.5a23.267,23.267,0,0,1-12.863-20.811V206.006a92.159,92.159,0,0,0,5.772-7.422,140.39,140.39,0,0,0,18.966-38.22,19.163,19.163,0,0,0,13.59-18.231V116.58a19.076,19.076,0,0,0-6.384-14.16V65.483S210.245,8,132.4,8,62.141,65.483,62.141,65.483v36.938a19.05,19.05,0,0,0-6.384,14.16v25.552a19.157,19.157,0,0,0,8.835,16.077c6.384,27.793,23.1,47.8,23.1,47.8v23.347A23.291,23.291,0,0,1,75.559,249.768Z" transform="translate(675.114 428.196)" fill="#e7eced"/>
    <path id="Path_2" data-name="Path 2" d="M194.222.028C88.777-1.773,1.83,82.248.029,187.693A190.382,190.382,0,0,0,68.082,336.95a50.741,50.741,0,0,1,9.058-6.442l56.977-31.079A23.276,23.276,0,0,0,146.245,279V255.653s-16.725-20-23.1-47.8a19.164,19.164,0,0,1-8.835-16.076V166.227a19.076,19.076,0,0,1,6.384-14.16V115.129S113.1,57.647,190.95,57.647s70.258,57.482,70.258,57.482v36.938a19.05,19.05,0,0,1,6.385,14.16v25.552A19.163,19.163,0,0,1,254,210.01a140.389,140.389,0,0,1-18.966,38.22,92.152,92.152,0,0,1-5.772,7.422v23.938A23.259,23.259,0,0,0,242.127,300.4l61.013,30.5a50.8,50.8,0,0,1,10.016,6.716,190.462,190.462,0,0,0,68.716-143.4C383.688,88.777,299.674,1.83,194.222.028Z" transform="translate(616.548 378.542)" fill="#39465e"/>
  </g>
</svg>
