<svg id="Layer_1" data-name="Layer 1" xmlns="http://www.w3.org/2000/svg" viewBox="0 0 381.9 381.92"><defs><style>.cls-1{fill:#e7eced;}.cls-2{fill:#f94c00;}</style></defs><title>user-red</title><g id="Group_5" data-name="Group 5"><path id="Path_1" data-name="Path 1" class="cls-1" d="M134.13,299.42l-57,31.08A51.16,51.16,0,0,0,68,337a190.84,190.84,0,0,0,245.2.63,50.21,50.21,0,0,0-10-6.73l-61-30.5a23.26,23.26,0,0,1-12.87-20.81V255.66a89.84,89.84,0,0,0,5.77-7.42A140.28,140.28,0,0,0,254,210a19.18,19.18,0,0,0,13.59-18.23V166.23a19.06,19.06,0,0,0-6.38-14.16V115.14S268.81,57.65,191,57.65s-70.26,57.49-70.26,57.49v36.93a19,19,0,0,0-6.39,14.16v25.56a19.14,19.14,0,0,0,8.84,16.07c6.38,27.8,23.1,47.8,23.1,47.8V279A23.3,23.3,0,0,1,134.13,299.42Z" transform="translate(0 0)"/><path id="Path_2" data-name="Path 2" class="cls-2" d="M194.22,0C88.78-1.77,1.83,82.25,0,187.69A190.4,190.4,0,0,0,68.08,337a51,51,0,0,1,9.06-6.44l57-31.08A23.32,23.32,0,0,0,146.25,279V255.65s-16.73-20-23.1-47.8a19.14,19.14,0,0,1-8.84-16.07V166.23a19,19,0,0,1,6.38-14.16V115.13S113.1,57.65,191,57.65s70.26,57.48,70.26,57.48v36.94a19,19,0,0,1,6.38,14.16v25.55A19.15,19.15,0,0,1,254,210a140.28,140.28,0,0,1-19,38.22,89.84,89.84,0,0,1-5.77,7.42v23.94a23.26,23.26,0,0,0,12.87,20.81l61,30.5a50.74,50.74,0,0,1,10,6.72,190.49,190.49,0,0,0,68.71-143.4C383.69,88.78,299.67,1.83,194.22,0Z" transform="translate(0 0)"/></g></svg>