<svg xmlns="http://www.w3.org/2000/svg" xmlns:xlink="http://www.w3.org/1999/xlink" width="121" height="121" viewBox="0 0 121 121">
  <defs>
    <filter id="Ellipse_1" x="0" y="0" width="121" height="121" filterUnits="userSpaceOnUse">
      <feOffset dy="3" input="SourceAlpha"/>
      <feGaussianBlur stdDeviation="3" result="blur"/>
      <feFlood flood-color="#fff" flood-opacity="0.678"/>
      <feComposite operator="in" in2="blur"/>
      <feComposite in="SourceGraphic"/>
    </filter>
  </defs>
  <g id="Group_932" data-name="Group 932" transform="translate(-13961 -162)">
    <g id="Group_931" data-name="Group 931" transform="translate(85 171)">
      <g id="Group_928" data-name="Group 928" transform="translate(-61 -234)">
        <g id="Group_26" data-name="Group 26" transform="translate(13675 67)">
          <g transform="matrix(1, 0, 0, 1, 262, 158)" filter="url(#Ellipse_1)">
            <circle id="Ellipse_1-2" data-name="Ellipse 1" cx="51.5" cy="51.5" r="51.5" transform="translate(9 6)" fill="rgba(5,90,77,0.25)"/>
          </g>
        </g>
      </g>
    </g>
    <g id="lender" transform="translate(13999.001 197)" opacity="0.8">
      <path id="Path_5377" data-name="Path 5377" d="M121.476,160.738a.738.738,0,1,1-.738-.738A.738.738,0,0,1,121.476,160.738Zm0,0" transform="translate(-108.931 -145.241)" fill="#fff"/>
      <path id="Path_5378" data-name="Path 5378" d="M201.476,160.738a.738.738,0,1,1-.738-.738A.738.738,0,0,1,201.476,160.738Zm0,0" transform="translate(-181.552 -145.241)" fill="#fff"/>
      <path id="Path_5379" data-name="Path 5379" d="M141.9,216h-1.476a1.476,1.476,0,0,1-2.952,0H136a2.952,2.952,0,1,0,5.9,0Zm0,0" transform="translate(-123.455 -196.075)" fill="#fff"/>
      <path id="Path_5380" data-name="Path 5380" d="M45.752,32.046l-2.214-1.291V19.187h2.117l-3.935-5.9H30.6l-3.935,5.9h2.116V29.95a5.166,5.166,0,0,0-1.318-.665l-7.537-2.513V25.243a8.143,8.143,0,0,0,3.386-4.625,3.682,3.682,0,0,0,3.255-3.645v-5.9a11.069,11.069,0,0,0-22.138,0v5.9a3.682,3.682,0,0,0,3.255,3.645,8.135,8.135,0,0,0,3.386,4.625v1.529L3.532,29.286A5.156,5.156,0,0,0,0,34.185v6.4H20.662v5.166H44.276V33.946h1.476Zm-9.593-3.888L43.55,32.47H28.768Zm-4.771-13.4H40.93L42.9,17.711H29.421Zm10.674,4.428V29.894l-5.9-3.443-5.9,3.443V19.187ZM21.038,28.7l-2.09,4.7L16.54,30.994l2.846-2.846Zm2.545-9.639c.015-.2.031-.405.031-.612V14.9a2.2,2.2,0,0,1-.031,4.166ZM5.9,16.973A2.211,2.211,0,0,1,7.379,14.9v3.554c0,.206.015.409.031.612A2.21,2.21,0,0,1,5.9,16.973Zm1.476-6.847v3.232A3.663,3.663,0,0,0,5.9,14.04V11.07a9.593,9.593,0,0,1,19.187,0V14.04a3.653,3.653,0,0,0-1.476-.682V10.127l-.916.228a33.3,33.3,0,0,1-7.2.715,33.106,33.106,0,0,1-7.2-.717Zm1.476,8.323V11.977a37.172,37.172,0,0,0,6.642.569,37.172,37.172,0,0,0,6.642-.569v6.473a6.642,6.642,0,0,1-13.283,0ZM15.5,26.567A8.06,8.06,0,0,0,18.448,26v1L15.5,29.951,12.545,27V26A8.06,8.06,0,0,0,15.5,26.567Zm-3.889,1.582,2.846,2.846L12.044,33.4l-2.09-4.7ZM1.475,34.185A3.685,3.685,0,0,1,4,30.685l4.549-1.517,3.021,6.8,3.189-3.189v6.336H1.475Zm14.759,4.926V32.776l3.189,3.189,3.021-6.8L27,30.686a3.685,3.685,0,0,1,1,.524l-1.434.837v1.9h1.476v1.665l-7.379,2.214v1.287Zm5.9-.189,5.9-1.771v2.7H23.614v4.428H22.138Zm2.952,5.354V41.326h2.952v2.952Zm13.283,0H33.945v-5.9h4.428Zm4.428,0H39.849V36.9H32.469v7.379H29.517V33.946H42.8Zm0,0" fill="#fff"/>
      <path id="Path_5381" data-name="Path 5381" d="M352.855,228.428V224H344v4.428Zm-7.38-2.952h5.9v1.476h-5.9Zm0,0" transform="translate(-312.269 -203.337)" fill="#fff"/>
    </g>
  </g>
</svg>
