<svg xmlns="http://www.w3.org/2000/svg" xmlns:xlink="http://www.w3.org/1999/xlink" width="121" height="121" viewBox="0 0 121 121">
  <defs>
    <filter id="Ellipse_1" x="0" y="0" width="121" height="121" filterUnits="userSpaceOnUse">
      <feOffset dy="3" input="SourceAlpha"/>
      <feGaussianBlur stdDeviation="3" result="blur"/>
      <feFlood flood-color="#fff" flood-opacity="0.678"/>
      <feComposite operator="in" in2="blur"/>
      <feComposite in="SourceGraphic"/>
    </filter>
  </defs>
  <g id="Group_943" data-name="Group 943" transform="translate(-15013 -1115)">
    <g id="Group_941" data-name="Group 941">
      <g id="Group_942" data-name="Group 942">
        <g id="Group_940" data-name="Group 940">
          <g id="Group_939" data-name="Group 939">
            <g id="Group_938" data-name="Group 938" transform="translate(2 -2)">
              <g id="Group_936" data-name="Group 936" transform="translate(1 -2)">
                <g id="Group_931" data-name="Group 931" transform="translate(1134 1128)">
                  <g id="Group_928" data-name="Group 928" transform="translate(-61 -234)">
                    <g id="Group_26" data-name="Group 26" transform="translate(13675 67)">
                      <g transform="matrix(1, 0, 0, 1, 262, 158)" filter="url(#Ellipse_1)">
                        <circle id="Ellipse_1-2" data-name="Ellipse 1" cx="51.5" cy="51.5" r="51.5" transform="translate(9 6)" fill="rgba(5,90,77,0.25)"/>
                      </g>
                    </g>
                  </g>
                </g>
              </g>
            </g>
          </g>
        </g>
        <g id="school-zone" transform="translate(15047.001 1130.283)" opacity="0.8">
          <path id="Path_5382" data-name="Path 5382" d="M51.862,59.137,29.681,20.727a4.02,4.02,0,0,0-6.962,0L.538,59.137a4.02,4.02,0,0,0,3.481,6.03H48.381a4.02,4.02,0,0,0,3.481-6.03ZM4.019,61.147,26.2,22.737l22.181,38.41Z" transform="translate(0)" fill="#fff"/>
          <path id="Path_5383" data-name="Path 5383" d="M146.959,132.161a2.671,2.671,0,1,0,3.141,2.1A2.671,2.671,0,0,0,146.959,132.161Z" transform="translate(-119.783 -96.362)" fill="#fff"/>
          <path id="Path_5384" data-name="Path 5384" d="M99.218,163.137c-.024-.019-.049-.035-.073-.052a2.3,2.3,0,0,0-1.99-.432l-3.671.673a1.216,1.216,0,0,0-.312.1l-2.676,1.3a1.22,1.22,0,1,0,1.065,2.194l2.527-1.226,1.121-.206-.862,4.058a2.329,2.329,0,0,0-.038.244l-1.563,4.02-3.292,2.761a1.452,1.452,0,0,0,1.866,2.225l3.578-3a1.453,1.453,0,0,0,.42-.586l1.114-2.867.073,0,2.187,1.915.625,4.1a1.452,1.452,0,0,0,2.871-.437l-.7-4.624a1.452,1.452,0,0,0-.479-.874l-2.126-1.861c0-.018.01-.035.014-.052l.827-3.892,1.1.86a1.219,1.219,0,0,0,.386.2l3.137.983a1.22,1.22,0,0,0,.729-2.328l-2.925-.917Z" transform="translate(-71.794 -120.992)" fill="#fff"/>
        </g>
      </g>
    </g>
  </g>
</svg>
