<svg xmlns="http://www.w3.org/2000/svg" xmlns:xlink="http://www.w3.org/1999/xlink" width="121" height="121" viewBox="0 0 121 121"><defs><filter id="Ellipse_1" width="121" height="121" x="0" y="0" filterUnits="userSpaceOnUse"><feOffset dy="3" input="SourceAlpha"/><feGaussianBlur result="blur" stdDeviation="3"/><feFlood flood-color="#fff" flood-opacity=".678"/><feComposite in2="blur" operator="in"/><feComposite in="SourceGraphic"/></filter></defs><g id="Group_939" data-name="Group 939" transform="translate(-15013 -1115)"><g id="Group_938" data-name="Group 938" transform="translate(2 -2)"><g id="Group_936" data-name="Group 936" transform="translate(1 -2)"><g id="Group_931" data-name="Group 931" transform="translate(1134 1128)"><g id="Group_928" data-name="Group 928" transform="translate(-61 -234)"><g id="Group_26" data-name="Group 26"><g filter="url(#Ellipse_1)" transform="translate(13675 67) matrix(1, 0, 0, 1, 262, 158)"><circle id="Ellipse_1-2" cx="51.5" cy="51.5" r="51.5" fill="rgba(5,90,77,0.25)" data-name="Ellipse 1" transform="translate(9 6)"/></g></g></g></g></g></g><g id="battery" opacity=".8" transform="translate(15045.104 1146.319)"><path id="Path_5373" fill="#fff" d="M38.8,3.477H33.121V0H22.692V3.477H17.011A3.014,3.014,0,0,0,14,6.487V49.139a3.014,3.014,0,0,0,3.011,3.011H38.8a3.014,3.014,0,0,0,3.012-3.011V6.487A3.014,3.014,0,0,0,38.8,3.477Zm1.272,45.662A1.274,1.274,0,0,1,38.8,50.411H17.011a1.274,1.274,0,0,1-1.272-1.272V6.487a1.274,1.274,0,0,1,1.272-1.272H38.8a1.274,1.274,0,0,1,1.272,1.272Z" data-name="Path 5373"/><path id="Path_5374" fill="#fff" d="M35.037,27.3H32.43V16.968a.915.915,0,0,0-.205-.626.989.989,0,0,0-1.427,0,.745.745,0,0,0-.063.09l-8.6,13.888a.869.869,0,0,0,.739,1.326h3.477l0,11.237h0a.917.917,0,0,0,1.634.585.9.9,0,0,0,.09-.138l7.735-14.757a.869.869,0,0,0-.77-1.272Z" data-name="Path 5374" transform="translate(-1.047 -2.099)"/></g></g></svg>