<svg xmlns="http://www.w3.org/2000/svg" width="345.643" height="170.666" viewBox="0 0 345.643 170.666">
  <g id="Group_24" data-name="Group 24" transform="translate(-3508.18 3111.488)">
    <path id="Path_39" data-name="Path 39" d="M301.4,137.912H210.6a11.492,11.492,0,0,1-11.492-11.492v-33.9A11.493,11.493,0,0,1,210.6,81.024H301.4A11.494,11.494,0,0,1,312.89,92.517v33.9A11.494,11.494,0,0,1,301.4,137.912Z" transform="translate(3934.847 -3282.156) rotate(90)" fill="#324a5e"/>
    <path id="Path_40" data-name="Path 40" d="M301.4,81.024H256.575v56.889H301.4A11.494,11.494,0,0,0,312.89,126.42v-33.9A11.494,11.494,0,0,0,301.4,81.024Z" transform="translate(3934.847 -3282.156) rotate(90)" fill="#2b3b4e"/>
    <path id="Path_41" data-name="Path 41" d="M325.1,426.667H186.9a16.232,16.232,0,0,1-16.232-16.234V130.012A16.232,16.232,0,0,1,186.9,113.78H325.1a16.233,16.233,0,0,1,16.234,16.232V410.435A16.236,16.236,0,0,1,325.1,426.667Z" transform="translate(3934.847 -3282.156) rotate(90)" fill="#e6f3ff"/>
    <path id="Path_42" data-name="Path 42" d="M325.1,113.778H256.576V426.667H325.1a16.234,16.234,0,0,0,16.234-16.234V130.012A16.236,16.236,0,0,0,325.1,113.778Z" transform="translate(3934.847 -3282.156) rotate(90)" fill="#cfdbe6"/>
    <path id="Path_43" data-name="Path 43" d="M317.99,410.29H194.012a9.122,9.122,0,0,1-9.121-9.123V362.522a9.123,9.123,0,0,1,9.121-9.123H317.99a9.124,9.124,0,0,1,9.123,9.123v38.645A9.125,9.125,0,0,1,317.99,410.29Z" transform="translate(3934.847 -3282.156) rotate(90)" fill="#fc6f58"/>
    <path id="Path_44" data-name="Path 44" d="M317.99,353.4H256.576V410.29H317.99a9.124,9.124,0,0,0,9.123-9.123V362.522A9.124,9.124,0,0,0,317.99,353.4Z" transform="translate(3934.847 -3282.156) rotate(90)" fill="#f1543f"/>
    <path id="Path_45" data-name="Path 45" d="M21.945,112.319a10.405,10.405,0,0,1-9.273-15.09l15.49-30.67H10.4A10.4,10.4,0,0,1,1.117,51.472L24.227,5.714A10.4,10.4,0,0,1,42.79,15.09L27.3,45.76H45.064a10.4,10.4,0,0,1,9.283,15.087L31.237,106.6A10.406,10.406,0,0,1,21.945,112.319Z" transform="translate(3748.626 -3052.888) rotate(90)" fill="#f9b54c"/>
    <g id="Group_21" data-name="Group 21" transform="translate(3748.622 -3024.695) rotate(90)">
      <path id="Path_46" data-name="Path 46" d="M14.6,15.085A10.393,10.393,0,0,0,0,1.469V43.991Z" transform="translate(0 0)" fill="#f4a200"/>
      <path id="Path_47" data-name="Path 47" d="M25.729,4.95A10.4,10.4,0,0,0,16.871,0H0V64.456a10.319,10.319,0,0,0,3.042-3.611l23.11-45.758A10.4,10.4,0,0,0,25.729,4.95Z" transform="translate(0 45.756)" fill="#f4a200"/>
    </g>
  </g>
</svg>
