<svg xmlns="http://www.w3.org/2000/svg" xmlns:xlink="http://www.w3.org/1999/xlink" width="121" height="121" viewBox="0 0 121 121"><defs><filter id="Ellipse_1" width="121" height="121" x="0" y="0" filterUnits="userSpaceOnUse"><feOffset dy="3" input="SourceAlpha"/><feGaussianBlur result="blur" stdDeviation="3"/><feFlood flood-color="#fff" flood-opacity=".678"/><feComposite in2="blur" operator="in"/><feComposite in="SourceGraphic"/></filter></defs><g id="Group_934" data-name="Group 934" transform="translate(-14004 -328)"><g id="Group_929" data-name="Group 929" transform="translate(-89 42)"><g id="Group_928" data-name="Group 928" transform="translate(156 61)"><g id="Group_26" data-name="Group 26"><g filter="url(#Ellipse_1)" transform="translate(13675 67) matrix(1, 0, 0, 1, 262, 158)"><circle id="Ellipse_1-2" cx="51.5" cy="51.5" r="51.5" fill="rgba(5,90,77,0.25)" data-name="Ellipse 1" transform="translate(9 6)"/></g></g></g></g><g id="bus" opacity=".8" transform="translate(14037 297.484)"><path id="Path_5387" fill="#fff" d="M80.785,275.387a2.759,2.759,0,1,0,2.759,2.759A2.762,2.762,0,0,0,80.785,275.387Zm0,3.51a.752.752,0,1,1,.752-.752A.753.753,0,0,1,80.785,278.9Z" data-name="Path 5387" transform="translate(-67.586 -178.324)"/><path id="Path_5388" fill="#fff" d="M294.017,275.387a2.759,2.759,0,1,0,2.759,2.759A2.762,2.762,0,0,0,294.017,275.387Zm0,3.51a.752.752,0,1,1,.752-.752A.753.753,0,0,1,294.017,278.9Z" data-name="Path 5388" transform="translate(-252.286 -178.324)"/><path id="Path_5389" fill="#fff" d="M53.656,94.981V75.309a5.8,5.8,0,0,0-5.793-5.793H10.273a9.009,9.009,0,0,0-9,9V94.981A3.177,3.177,0,0,0,0,97.524v.123a3.181,3.181,0,0,0,3.178,3.178H7.263a6.02,6.02,0,0,0,11.872,0H35.8a6.02,6.02,0,0,0,11.872,0h4.086a3.181,3.181,0,0,0,3.178-3.178v-.123A3.177,3.177,0,0,0,53.656,94.981Zm-2.007-10.42H48.9a.256.256,0,0,1-.256-.256V76.568a.256.256,0,0,1,.256-.256h2.754ZM2.007,97.647v-.123a1.173,1.173,0,0,1,1.171-1.172h5.1a5.987,5.987,0,0,0-1.019,2.466H3.178A1.172,1.172,0,0,1,2.007,97.647ZM13.2,103.836a4.014,4.014,0,1,1,4.014-4.014A4.019,4.019,0,0,1,13.2,103.836Zm22.6-5.017H19.135A6.016,6.016,0,0,0,10.7,94.345H3.281V78.515a7,7,0,0,1,6.992-6.992H47.864a3.792,3.792,0,0,1,3.65,2.782H48.9a2.265,2.265,0,0,0-2.263,2.263v7.737A2.265,2.265,0,0,0,48.9,86.568h2.754v7.778H44.229A6.016,6.016,0,0,0,35.8,98.818Zm5.936,5.017a4.014,4.014,0,1,1,4.014-4.014A4.019,4.019,0,0,1,41.731,103.836Zm11.192-6.188a1.172,1.172,0,0,1-1.171,1.171H47.667a5.988,5.988,0,0,0-1.019-2.466h5.1a1.173,1.173,0,0,1,1.171,1.172Z" data-name="Path 5389" transform="translate(0 0)"/><path id="Path_5390" fill="#fff" d="M80.362,115.308v-7.737a2.265,2.265,0,0,0-2.263-2.263H47.2a4.847,4.847,0,0,0-4.842,4.842v5.158a2.265,2.265,0,0,0,2.263,2.263H78.1A2.265,2.265,0,0,0,80.362,115.308Zm-18-7.993h7.889v8.248H62.363Zm-2.007,8.248H52.467v-8.248h7.889Zm-15.991-.256V110.15a2.838,2.838,0,0,1,2.835-2.835h3.26v8.248H44.621A.256.256,0,0,1,44.365,115.308Zm33.989,0a.256.256,0,0,1-.256.256H72.26v-8.248H78.1a.256.256,0,0,1,.256.256Z" data-name="Path 5390" transform="translate(-36.69 -31.003)"/><path id="Path_5391" fill="#fff" d="M363.041,224.645a1,1,0,0,0,1-1v-.892a1,1,0,0,0-2.007,0v.892A1,1,0,0,0,363.041,224.645Z" data-name="Path 5391" transform="translate(-313.594 -131.861)"/></g></g></svg>