<svg xmlns="http://www.w3.org/2000/svg" xmlns:xlink="http://www.w3.org/1999/xlink" width="121" height="121" viewBox="0 0 121 121"><defs><filter id="Ellipse_1" width="121" height="121" x="0" y="0" filterUnits="userSpaceOnUse"><feOffset dy="3" input="SourceAlpha"/><feGaussianBlur result="blur" stdDeviation="3"/><feFlood flood-color="#fff" flood-opacity=".678"/><feComposite in2="blur" operator="in"/><feComposite in="SourceGraphic"/></filter></defs><g id="Group_933" data-name="Group 933" transform="translate(-13961 -162)"><g id="Group_932" data-name="Group 932"><g id="Group_931" data-name="Group 931" transform="translate(85 171)"><g id="Group_928" data-name="Group 928" transform="translate(-61 -234)"><g id="Group_26" data-name="Group 26"><g filter="url(#Ellipse_1)" transform="translate(13675 67) matrix(1, 0, 0, 1, 262, 158)"><circle id="Ellipse_1-2" cx="51.5" cy="51.5" r="51.5" fill="rgba(5,90,77,0.25)" data-name="Ellipse 1" transform="translate(9 6)"/></g></g></g></g></g><g id="settings" opacity=".8" transform="translate(13998.499 196)"><path id="Path_5382" fill="#fff" d="M281.2,303.394a5.457,5.457,0,1,0,5.458-5.457A5.464,5.464,0,0,0,281.2,303.394Zm1.418,0a4.044,4.044,0,0,1,2.311-3.649v7.3A4.044,4.044,0,0,1,282.617,303.394Zm3.729,4.027v-8.052c.1-.008.206-.013.31-.013a4.041,4.041,0,0,1,.848.09v7.9a4.041,4.041,0,0,1-.848.09C286.552,307.433,286.449,307.428,286.347,307.42Zm4.349-4.027a4.039,4.039,0,0,1-1.772,3.342v-6.682A4.036,4.036,0,0,1,290.7,303.394Zm0,0" data-name="Path 5382" transform="translate(-254.518 -270.149)"/><path id="Path_5383" fill="#fff" d="M45.636,37.371l-3.1-2.452a10.7,10.7,0,0,0,.134-1.674c0-.2-.006-.4-.019-.6a.709.709,0,0,0-1.416.087c.011.17.016.344.016.516a9.284,9.284,0,0,1-.184,1.827.709.709,0,0,0,.255.7L44.275,38.1l-1.861,3.224-3.5-1.391a.709.709,0,0,0-.732.129,9.055,9.055,0,0,1-3.154,1.824.709.709,0,0,0-.477.569L34,46.184H30.277l-.546-3.726a.708.708,0,0,0-.477-.569A9.063,9.063,0,0,1,26.1,40.065a.71.71,0,0,0-.732-.129l-3.5,1.391L20,38.1l2.953-2.336a.708.708,0,0,0,.255-.7,9.23,9.23,0,0,1,0-3.649.708.708,0,0,0-.255-.7L20,28.387l1.862-3.224,3.5,1.391a.709.709,0,0,0,.732-.129A9.045,9.045,0,0,1,29.253,24.6a.71.71,0,0,0,.477-.57l.546-3.729H34l.548,3.729a.709.709,0,0,0,.477.569,9.033,9.033,0,0,1,3.153,1.822.709.709,0,0,0,.732.129l3.5-1.391,1.861,3.224-1.84,1.456a.709.709,0,0,0,.88,1.112l2.321-1.836a.709.709,0,0,0,.174-.911l-2.473-4.286a.709.709,0,0,0-.876-.3l-3.678,1.46a10.417,10.417,0,0,0-2.895-1.673l-.575-3.914a.709.709,0,0,0-.7-.606h-.206V5.82A5.826,5.826,0,0,0,28.586,0H6.32A5.826,5.826,0,0,0,.5,5.82V41.934A5.826,5.826,0,0,0,6.32,47.753H28.586A5.832,5.832,0,0,0,29.9,47.6h4.709a.709.709,0,0,0,.7-.606l.575-3.911a10.451,10.451,0,0,0,2.895-1.674l3.677,1.46a.71.71,0,0,0,.876-.3l2.474-4.286a.709.709,0,0,0-.174-.911ZM25.493,41.412a10.428,10.428,0,0,0,1.852,1.208,3.549,3.549,0,0,1-.525.039H22.353ZM6.32,46.335a4.406,4.406,0,0,1-4.4-4.4V5.82a4.406,4.406,0,0,1,4.4-4.4H28.586a4.406,4.406,0,0,1,4.4,4.4V18.886H31.828V8.686a5.008,5.008,0,0,0-5.009-5.01H8.087a5.008,5.008,0,0,0-5.01,5.01v3.229a.709.709,0,0,0,1.418,0V8.686A3.59,3.59,0,0,1,8.087,5.094H26.82a3.59,3.59,0,0,1,3.59,3.592v10.2h-.746a.709.709,0,0,0-.7.606l-.573,3.913a10.432,10.432,0,0,0-2.9,1.673l-3.675-1.46a.71.71,0,0,0-.876.3l-2.475,4.286a.709.709,0,0,0,.174.911l3.1,2.452a10.664,10.664,0,0,0,0,3.349l-3.1,2.452a.71.71,0,0,0-.174.911l2.475,4.285a.748.748,0,0,0,.064.092H8.087A3.591,3.591,0,0,1,4.5,39.07V14.751a.709.709,0,1,0-1.418,0V39.07a5.009,5.009,0,0,0,5.01,5.008H26.82a4.988,4.988,0,0,0,1.547-.244c.042-.013.083-.03.126-.045l.372,2.538c-.093.005-.185.009-.278.009Zm0,0" data-name="Path 5383" transform="translate(0 0)"/><path id="Path_5384" fill="#fff" d="M70.568,92.137H90.618a.709.709,0,0,0,0-1.418H70.568a.709.709,0,0,0,0,1.418Zm0,0" data-name="Path 5384" transform="translate(-62.89 -82.258)"/><path id="Path_5385" fill="#fff" d="M70.568,125.336H86.215a.709.709,0,1,0,0-1.418H70.568a.709.709,0,0,0,0,1.418Zm0,0" data-name="Path 5385" transform="translate(-62.89 -112.36)"/><path id="Path_5386" fill="#fff" d="M70.568,159.716H75.65a.709.709,0,0,0,0-1.419H70.568a.709.709,0,0,0,0,1.419Zm0,0" data-name="Path 5386" transform="translate(-62.89 -143.533)"/></g></g></svg>