<svg xmlns="http://www.w3.org/2000/svg" xmlns:xlink="http://www.w3.org/1999/xlink" width="121" height="121" viewBox="0 0 121 121"><defs><filter id="Ellipse_1" width="121" height="121" x="0" y="0" filterUnits="userSpaceOnUse"><feOffset dy="3" input="SourceAlpha"/><feGaussianBlur result="blur" stdDeviation="3"/><feFlood flood-color="#fff" flood-opacity=".678"/><feComposite in2="blur" operator="in"/><feComposite in="SourceGraphic"/></filter></defs><g id="Group_928" data-name="Group 928" transform="translate(-13937 -225)"><g id="Group_26" data-name="Group 26"><g filter="url(#Ellipse_1)" transform="translate(13675 67) matrix(1, 0, 0, 1, 262, 158)"><circle id="Ellipse_1-2" cx="51.5" cy="51.5" r="51.5" fill="rgba(5,90,77,0.25)" data-name="Ellipse 1" transform="translate(9 6)"/></g></g><path id="stairs" fill="#fff" d="M60.542,33.046a.818.818,0,0,0-.818-.818H36.714V20.785l4.9-3.385a2.341,2.341,0,1,0-2.663-3.85L13.706,30.994a2.34,2.34,0,0,0,.909,4.227,2.364,2.364,0,0,0,.426.039,2.324,2.324,0,0,0,1.326-.416L20.2,32.2V50.152h-8.13a.818.818,0,0,0-.818.818v8.877a.818.818,0,0,0,.818.818H59.724a.818.818,0,0,0,.818-.818ZM32.033,24.019V41.275H24.877V28.963ZM24.877,42.91H58.907v7.242H24.877Zm34.029-9.047v7.412H36.714V33.863ZM35.078,41.274h-1.41V22.889l1.41-.974ZM15.437,33.5a.705.705,0,1,1-.8-1.16L39.88,14.894a.7.7,0,0,1,.8,1.16L23.6,27.857Zm6.4-2.43,1.41-.974V50.152H21.833ZM58.907,59.031H12.885V51.789H58.907Z" opacity=".8" transform="translate(13961.75 245.866)"/></g></svg>