<svg xmlns="http://www.w3.org/2000/svg" xmlns:xlink="http://www.w3.org/1999/xlink" width="121" height="121" viewBox="0 0 121 121">
  <defs>
    <filter id="Ellipse_1" x="0" y="0" width="121" height="121" filterUnits="userSpaceOnUse">
      <feOffset dy="3" input="SourceAlpha"/>
      <feGaussianBlur stdDeviation="3" result="blur"/>
      <feFlood flood-color="#fff" flood-opacity="0.678"/>
      <feComposite operator="in" in2="blur"/>
      <feComposite in="SourceGraphic"/>
    </filter>
  </defs>
  <g id="Group_938" data-name="Group 938" transform="translate(-15011 -1117)">
    <g id="Group_936" data-name="Group 936" transform="translate(1 -2)">
      <g id="Group_931" data-name="Group 931" transform="translate(1134 1128)">
        <g id="Group_928" data-name="Group 928" transform="translate(-61 -234)">
          <g id="Group_26" data-name="Group 26" transform="translate(13675 67)">
            <g transform="matrix(1, 0, 0, 1, 262, 158)" filter="url(#Ellipse_1)">
              <circle id="Ellipse_1-2" data-name="Ellipse 1" cx="51.5" cy="51.5" r="51.5" transform="translate(9 6)" fill="rgba(5,90,77,0.25)"/>
            </g>
          </g>
        </g>
      </g>
    </g>
    <g id="hospital" transform="translate(15042 1124.464)" opacity="0.8">
      <g id="Layer_2_19_" transform="translate(0 23.536)">
        <g id="Group_937" data-name="Group 937" transform="translate(0 0)">
          <path id="Path_5370" data-name="Path 5370" d="M42.708,39.922a.774.774,0,0,1,1.5.2L45.444,54.57l2.316-8.35a.774.774,0,0,1,1.5.033l1.29,5.6,2.2-9.254a.774.774,0,0,1,1.52.072l1.644,11.718L56.654,52a.774.774,0,0,1,.74-.545H74.825v-3.99A6.671,6.671,0,0,0,68.153,40.8H57.562V30.207a6.67,6.67,0,0,0-6.671-6.671H46.43a6.672,6.672,0,0,0-6.672,6.671V40.8H29.167a6.672,6.672,0,0,0-6.67,6.671v4.075h16.04Z" transform="translate(-19.315 -23.536)" fill="#fff"/>
          <path id="Path_5371" data-name="Path 5371" d="M57,181.061a.774.774,0,0,1-1.506-.121l-1.555-11.088-2.018,8.478a.774.774,0,0,1-.753.595h0a.774.774,0,0,1-.752-.6l-1.347-5.844-2.651,9.557a.774.774,0,0,1-.745.567c-.024,0-.048,0-.072,0a.774.774,0,0,1-.7-.7l-1.3-15.207-3.157,8.8a.774.774,0,0,1-.729.513H23.226a6.672,6.672,0,0,0,6.567,5.509H40.384V192.1a6.673,6.673,0,0,0,6.672,6.673h4.461a6.672,6.672,0,0,0,6.671-6.673V181.508H68.779a6.672,6.672,0,0,0,6.584-5.594H58.59Z" transform="translate(-19.941 -146.443)" fill="#fff"/>
          <path id="Path_5372" data-name="Path 5372" d="M58.212,147.818H38.078a.774.774,0,0,0-.74.545l-.737,2.382-1.644-11.718a.774.774,0,0,0-1.52-.072l-2.2,9.254-1.29-5.6a.774.774,0,0,0-1.5-.033l-2.316,8.35-1.237-14.453a.774.774,0,0,0-1.5-.2L19.222,147.9H.774a.774.774,0,0,0,0,1.548H19.767a.774.774,0,0,0,.729-.513l3.157-8.8,1.3,15.207a.774.774,0,0,0,.7.7c.024,0,.048,0,.072,0a.774.774,0,0,0,.745-.567l2.651-9.557,1.347,5.844a.774.774,0,0,0,.752.6h0a.774.774,0,0,0,.753-.595l2.018-8.478,1.555,11.088a.774.774,0,0,0,1.506.121l1.593-5.147H58.212a.774.774,0,0,0,0-1.548Z" transform="translate(0 -119.895)" fill="#afc4c1"/>
        </g>
      </g>
    </g>
  </g>
</svg>
