<svg xmlns="http://www.w3.org/2000/svg" xmlns:xlink="http://www.w3.org/1999/xlink" width="121" height="121" viewBox="0 0 121 121">
  <defs>
    <filter id="Ellipse_1" x="0" y="0" width="121" height="121" filterUnits="userSpaceOnUse">
      <feOffset dy="3" input="SourceAlpha"/>
      <feGaussianBlur stdDeviation="3" result="blur"/>
      <feFlood flood-color="#fff" flood-opacity="0.678"/>
      <feComposite operator="in" in2="blur"/>
      <feComposite in="SourceGraphic"/>
    </filter>
  </defs>
  <g id="Group_936" data-name="Group 936" transform="translate(-15010 -1119)">
    <g id="Group_931" data-name="Group 931" transform="translate(1134 1128)">
      <g id="Group_928" data-name="Group 928" transform="translate(-61 -234)">
        <g id="Group_26" data-name="Group 26" transform="translate(13675 67)">
          <g transform="matrix(1, 0, 0, 1, 262, 158)" filter="url(#Ellipse_1)">
            <circle id="Ellipse_1-2" data-name="Ellipse 1" cx="51.5" cy="51.5" r="51.5" transform="translate(9 6)" fill="rgba(5,90,77,0.25)"/>
          </g>
        </g>
      </g>
    </g>
    <g id="business-affiliate-network" transform="translate(15043 1149.089)" opacity="0.8">
      <g id="Layer_1_110_" transform="translate(0 0.911)">
        <g id="Group_935" data-name="Group 935">
          <path id="Path_5365" data-name="Path 5365" d="M19.324,17.4,16,14.255a4.871,4.871,0,0,0,.627-2.359,4.963,4.963,0,1,0-2.323,4.17L17.623,19.2A11.29,11.29,0,0,1,19.324,17.4Z" transform="translate(1.1 0.074)" fill="#fff"/>
          <path id="Path_5366" data-name="Path 5366" d="M29.958,17.989l4.417-7.433a4.875,4.875,0,1,0-2.143-1.251l-4.4,7.412A11.03,11.03,0,0,1,29.958,17.989Z" transform="translate(4.525 -0.911)" fill="#fff"/>
          <path id="Path_5367" data-name="Path 5367" d="M44.3,20.952a4.925,4.925,0,0,0-4.613,3.226l-6.136-.606c0,.047.007.091.007.136a11.3,11.3,0,0,1-.248,2.336l6.134.606a4.922,4.922,0,1,0,4.856-5.7Z" transform="translate(5.417 2.348)" fill="#fff"/>
          <path id="Path_5368" data-name="Path 5368" d="M28.908,38.462l-1.372-5.994a11.233,11.233,0,0,1-2.421.559l1.374,6a4.915,4.915,0,1,0,2.418-.56Z" transform="translate(3.875 4.221)" fill="#fff"/>
          <path id="Path_5369" data-name="Path 5369" d="M16.692,25.37,9.053,27.929a4.921,4.921,0,1,0,.807,2.689c0-.114-.024-.219-.034-.33l7.663-2.566A11.257,11.257,0,0,1,16.692,25.37Z" transform="translate(0 3.066)" fill="#fff"/>
          <circle id="Ellipse_967" data-name="Ellipse 967" cx="8.453" cy="8.453" r="8.453" transform="translate(19.252 17.603)" fill="#fff"/>
        </g>
      </g>
    </g>
  </g>
</svg>
