<svg xmlns="http://www.w3.org/2000/svg" xmlns:xlink="http://www.w3.org/1999/xlink" width="121" height="121" viewBox="0 0 121 121">
  <defs>
    <filter id="Ellipse_1" x="0" y="0" width="121" height="121" filterUnits="userSpaceOnUse">
      <feOffset dy="3" input="SourceAlpha"/>
      <feGaussianBlur stdDeviation="3" result="blur"/>
      <feFlood flood-color="#fff" flood-opacity="0.678"/>
      <feComposite operator="in" in2="blur"/>
      <feComposite in="SourceGraphic"/>
    </filter>
  </defs>
  <g id="Group_929" data-name="Group 929" transform="translate(-14093 -286)">
    <g id="Group_928" data-name="Group 928" transform="translate(156 61)">
      <g id="Group_26" data-name="Group 26" transform="translate(13675 67)">
        <g transform="matrix(1, 0, 0, 1, 262, 158)" filter="url(#Ellipse_1)">
          <circle id="Ellipse_1-2" data-name="Ellipse 1" cx="51.5" cy="51.5" r="51.5" transform="translate(9 6)" fill="rgba(5,90,77,0.25)"/>
        </g>
      </g>
    </g>
    <g id="industrial-zone" transform="translate(14130 277.25)" opacity="0.8">
      <path id="Path_5365" data-name="Path 5365" d="M46.819,83.722V73.756a.835.835,0,0,0,.74-1.133l-1.595-4.167a.837.837,0,0,0-.781-.538h-11.8v-16.7a.837.837,0,0,0-.837-.837H21.7a.837.837,0,0,0-.837.837v8.328H16.758V48.587a.837.837,0,0,0-.837-.837H12.575a.837.837,0,0,0-.837.837V59.542H10.064V48.587a.837.837,0,0,0-.837-.837H5.881a.837.837,0,0,0-.837.837V59.542H2.47a.837.837,0,0,0-.781.538L.094,64.247A.835.835,0,0,0,.837,65.38V83.72a.837.837,0,1,0,0,1.673H46.793a.836.836,0,0,0,.026-1.672ZM13.411,52.782h1.674v6.727H13.411Zm1.674-3.359v1.686H13.411V49.423ZM6.717,52.782H8.391v6.727H6.717Zm1.674-3.359v1.686H6.717V49.423ZM44.608,69.591l.954,2.494H33.382V69.591ZM22.538,52.05h9.171V83.72H22.538V52.05ZM14.21,65.365v4.967H9.165V65.365Zm6.655,0v4.967H15.883V65.365Zm0,11.685H15.883V72h4.982ZM7.492,70.332H2.51V65.38a.846.846,0,0,0,.131-.015H7.492ZM2.51,72H7.492V77.05H2.51Zm6.655,0H14.21V77.05H9.165V72Zm5.045,6.718v5H9.165v-5Zm1.673,0h4.982v5H15.883ZM3.046,61.215H20.865v2.477H15.2a.818.818,0,0,0-.315,0h-6.4a.818.818,0,0,0-.315,0H2.1ZM2.51,78.723H7.492v5H2.51Zm39.264,5H36.737V79.568h5.037Zm1.673,0V78.732a.837.837,0,0,0-.837-.837H35.9a.837.837,0,0,0-.837.837V83.72H33.5V73.758H45.146V83.72Z" fill="#fff"/>
      <path id="Path_5366" data-name="Path 5366" d="M241.045,116.07a.837.837,0,0,0,.837-.837v-1.647a.837.837,0,0,0-1.673,0v1.647A.837.837,0,0,0,241.045,116.07Z" transform="translate(-215.091 -58.203)" fill="#fff"/>
      <path id="Path_5367" data-name="Path 5367" d="M264.587,116.07a.837.837,0,0,0,.837-.837v-1.647a.837.837,0,1,0-1.673,0v1.647A.837.837,0,0,0,264.587,116.07Z" transform="translate(-236.171 -58.203)" fill="#fff"/>
      <path id="Path_5368" data-name="Path 5368" d="M241.045,172.56a.837.837,0,0,0,.837-.837v-1.647a.837.837,0,1,0-1.673,0v1.647A.837.837,0,0,0,241.045,172.56Z" transform="translate(-215.091 -108.786)" fill="#fff"/>
      <path id="Path_5369" data-name="Path 5369" d="M264.587,172.56a.837.837,0,0,0,.837-.837v-1.647a.837.837,0,0,0-1.673,0v1.647A.837.837,0,0,0,264.587,172.56Z" transform="translate(-236.171 -108.786)" fill="#fff"/>
      <path id="Path_5370" data-name="Path 5370" d="M241.045,228.195a.837.837,0,0,0,.837-.837v-1.647a.837.837,0,0,0-1.673,0v1.647A.837.837,0,0,0,241.045,228.195Z" transform="translate(-215.091 -158.604)" fill="#fff"/>
      <path id="Path_5371" data-name="Path 5371" d="M264.587,228.195a.837.837,0,0,0,.837-.837v-1.647a.837.837,0,1,0-1.673,0v1.647A.837.837,0,0,0,264.587,228.195Z" transform="translate(-236.171 -158.604)" fill="#fff"/>
      <path id="Path_5372" data-name="Path 5372" d="M241.045,284.685a.837.837,0,0,0,.837-.837V282.2a.837.837,0,0,0-1.673,0v1.647A.837.837,0,0,0,241.045,284.685Z" transform="translate(-215.091 -209.187)" fill="#fff"/>
      <path id="Path_5373" data-name="Path 5373" d="M264.587,284.685a.837.837,0,0,0,.837-.837V282.2a.837.837,0,1,0-1.673,0v1.647A.837.837,0,0,0,264.587,284.685Z" transform="translate(-236.171 -209.187)" fill="#fff"/>
      <path id="Path_5374" data-name="Path 5374" d="M241.045,340.351a.837.837,0,0,0,.837-.837v-1.647a.837.837,0,0,0-1.673,0v1.647A.836.836,0,0,0,241.045,340.351Z" transform="translate(-215.091 -259.032)" fill="#fff"/>
      <path id="Path_5375" data-name="Path 5375" d="M264.587,340.351a.837.837,0,0,0,.837-.837v-1.647a.837.837,0,0,0-1.673,0v1.647A.836.836,0,0,0,264.587,340.351Z" transform="translate(-236.171 -259.032)" fill="#fff"/>
    </g>
  </g>
</svg>
