<svg xmlns="http://www.w3.org/2000/svg" xmlns:xlink="http://www.w3.org/1999/xlink" width="121" height="121" viewBox="0 0 121 121">
  <defs>
    <filter id="Ellipse_1" x="0" y="0" width="121" height="121" filterUnits="userSpaceOnUse">
      <feOffset dy="3" input="SourceAlpha"/>
      <feGaussianBlur stdDeviation="3" result="blur"/>
      <feFlood flood-color="#fff" flood-opacity="0.678"/>
      <feComposite operator="in" in2="blur"/>
      <feComposite in="SourceGraphic"/>
    </filter>
  </defs>
  <g id="Group_934" data-name="Group 934" transform="translate(-13961 -162)">
    <g id="Group_933" data-name="Group 933">
      <g id="Group_932" data-name="Group 932">
        <g id="Group_931" data-name="Group 931" transform="translate(85 171)">
          <g id="Group_928" data-name="Group 928" transform="translate(-61 -234)">
            <g id="Group_26" data-name="Group 26" transform="translate(13675 67)">
              <g transform="matrix(1, 0, 0, 1, 262, 158)" filter="url(#Ellipse_1)">
                <circle id="Ellipse_1-2" data-name="Ellipse 1" cx="51.5" cy="51.5" r="51.5" transform="translate(9 6)" fill="rgba(5,90,77,0.25)"/>
              </g>
            </g>
          </g>
        </g>
      </g>
    </g>
    <g id="_027---Forum" data-name="027---Forum" transform="translate(14000 198)" opacity="0.8">
      <path id="Shape" d="M40.171,0H2.869A2.869,2.869,0,0,0,0,2.869v37.3A2.869,2.869,0,0,0,2.869,43.04h37.3a2.869,2.869,0,0,0,2.869-2.869V2.869A2.869,2.869,0,0,0,40.171,0ZM2.869,1.435h37.3a1.435,1.435,0,0,1,1.435,1.435V5.739H1.435V2.869A1.435,1.435,0,0,1,2.869,1.435Zm37.3,40.171H2.869a1.435,1.435,0,0,1-1.435-1.435v-33H41.605v33A1.435,1.435,0,0,1,40.171,41.605Z" fill="#fff"/>
      <circle id="Oval" cx="1" cy="1" r="1" transform="translate(2.52 2.52)" fill="#fff"/>
      <circle id="Oval-2" data-name="Oval" cx="1" cy="1" r="1" transform="translate(5.52 2.52)" fill="#fff"/>
      <circle id="Oval-3" data-name="Oval" cx="1" cy="1" r="1" transform="translate(8.52 2.52)" fill="#fff"/>
      <path id="Shape-2" data-name="Shape" d="M31.259,21.608a2.152,2.152,0,0,0,2.152-2.152v-4.3A2.152,2.152,0,0,0,31.259,13H8.3a2.152,2.152,0,0,0-2.152,2.152v.3l-1.6.913a1.076,1.076,0,0,0-.005,1.875l1.606.916v.3A2.152,2.152,0,0,0,8.3,21.608ZM7.587,19.456v-.717a.717.717,0,0,0-.362-.623L5.8,17.3l1.427-.811a.717.717,0,0,0,.359-.623v-.717a.717.717,0,0,1,.717-.717H31.259a.717.717,0,0,1,.717.717v4.3a.717.717,0,0,1-.717.717H8.3A.717.717,0,0,1,7.587,19.456Z" transform="translate(-1.131 -3.675)" fill="#fff"/>
      <path id="Shape-3" data-name="Shape" d="M11.717,19.435h.717a.717.717,0,1,0,0-1.435h-.717a.717.717,0,1,0,0,1.435Z" transform="translate(-3.109 -5.088)" fill="#fff"/>
      <path id="Shape-4" data-name="Shape" d="M27.717,19.435h1.435a.717.717,0,0,0,0-1.435H27.717a.717.717,0,1,0,0,1.435Z" transform="translate(-7.632 -5.088)" fill="#fff"/>
      <path id="Shape-5" data-name="Shape" d="M33.717,19.435h4.3a.717.717,0,0,0,0-1.435h-4.3a.717.717,0,0,0,0,1.435Z" transform="translate(-9.328 -5.088)" fill="#fff"/>
      <path id="Shape-6" data-name="Shape" d="M16.717,19.435h5.021a.717.717,0,1,0,0-1.435H16.717a.717.717,0,1,0,0,1.435Z" transform="translate(-4.523 -5.088)" fill="#fff"/>
      <path id="Shape-7" data-name="Shape" d="M36.259,36.608a2.152,2.152,0,0,0,2.152-2.152v-4.3A2.152,2.152,0,0,0,36.259,28H13.3a2.152,2.152,0,0,0-2.152,2.152v.3l-1.6.913a1.076,1.076,0,0,0-.005,1.875l1.606.916v.3A2.152,2.152,0,0,0,13.3,36.608ZM12.587,34.456v-.717a.717.717,0,0,0-.362-.623L10.8,32.3l1.427-.811a.717.717,0,0,0,.359-.623v-.717a.717.717,0,0,1,.717-.717H36.259a.717.717,0,0,1,.717.717v4.3a.717.717,0,0,1-.717.717H13.3A.717.717,0,0,1,12.587,34.456Z" transform="translate(-2.544 -7.915)" fill="#fff"/>
      <path id="Shape-8" data-name="Shape" d="M16.717,34.435h.717a.717.717,0,1,0,0-1.435h-.717a.717.717,0,1,0,0,1.435Z" transform="translate(-4.523 -9.328)" fill="#fff"/>
      <path id="Shape-9" data-name="Shape" d="M32.717,34.435h1.435a.717.717,0,1,0,0-1.435H32.717a.717.717,0,1,0,0,1.435Z" transform="translate(-9.045 -9.328)" fill="#fff"/>
      <path id="Shape-10" data-name="Shape" d="M38.717,34.435h4.3a.717.717,0,0,0,0-1.435h-4.3a.717.717,0,0,0,0,1.435Z" transform="translate(-10.741 -9.328)" fill="#fff"/>
      <path id="Shape-11" data-name="Shape" d="M21.717,34.435h5.021a.717.717,0,1,0,0-1.435H21.717a.717.717,0,1,0,0,1.435Z" transform="translate(-5.936 -9.328)" fill="#fff"/>
      <path id="Shape-12" data-name="Shape" d="M42.258,43H19.3a2.152,2.152,0,0,0-2.152,2.152v.3l-1.6.913a1.076,1.076,0,0,0-.005,1.875l1.608.916v.3A2.152,2.152,0,0,0,19.3,51.608H42.258a2.152,2.152,0,0,0,2.152-2.152v-4.3A2.152,2.152,0,0,0,42.258,43Zm.717,6.456a.717.717,0,0,1-.717.717H19.3a.717.717,0,0,1-.717-.717v-.717a.717.717,0,0,0-.359-.623L16.8,47.3l1.427-.811a.717.717,0,0,0,.359-.623v-.717a.717.717,0,0,1,.717-.717H42.258a.717.717,0,0,1,.717.717Z" transform="translate(-4.239 -12.155)" fill="#fff"/>
      <path id="Shape-13" data-name="Shape" d="M23.435,48h-.717a.717.717,0,1,0,0,1.435h.717a.717.717,0,1,0,0-1.435Z" transform="translate(-6.219 -13.568)" fill="#fff"/>
      <path id="Shape-14" data-name="Shape" d="M40.152,48H38.717a.717.717,0,0,0,0,1.435h1.435a.717.717,0,1,0,0-1.435Z" transform="translate(-10.741 -13.568)" fill="#fff"/>
      <path id="Shape-15" data-name="Shape" d="M49.021,48h-4.3a.717.717,0,1,0,0,1.435h4.3a.717.717,0,0,0,0-1.435Z" transform="translate(-12.437 -13.568)" fill="#fff"/>
      <path id="Shape-16" data-name="Shape" d="M32.739,48H27.717a.717.717,0,1,0,0,1.435h5.021a.717.717,0,1,0,0-1.435Z" transform="translate(-7.632 -13.568)" fill="#fff"/>
    </g>
  </g>
</svg>
