<svg xmlns="http://www.w3.org/2000/svg" xmlns:xlink="http://www.w3.org/1999/xlink" width="121" height="121" viewBox="0 0 121 121"><defs><filter id="Ellipse_1" width="121" height="121" x="0" y="0" filterUnits="userSpaceOnUse"><feOffset dy="3" input="SourceAlpha"/><feGaussianBlur result="blur" stdDeviation="3"/><feFlood flood-color="#fff" flood-opacity=".678"/><feComposite in2="blur" operator="in"/><feComposite in="SourceGraphic"/></filter></defs><g id="Group_26" data-name="Group 26" transform="translate(-262 -158)"><g filter="url(#Ellipse_1)" transform="matrix(1, 0, 0, 1, 262, 158)"><circle id="Ellipse_1-2" cx="51.5" cy="51.5" r="51.5" fill="rgba(5,90,77,0.25)" data-name="Ellipse 1" transform="translate(9 6)"/></g><g id="money" opacity=".8" transform="translate(294.993 188)"><g id="Group_21" data-name="Group 21" transform="translate(7.285 48.379)"><g id="Group_20" data-name="Group 20"><path id="Path_28" fill="#fff" d="M69.83,452.315a1.069,1.069,0,1,0,.314.757A1.078,1.078,0,0,0,69.83,452.315Z" data-name="Path 28" transform="translate(-68.003 -452.001)"/></g></g><g id="Group_23" data-name="Group 23" transform="translate(48.434 19.267)"><g id="Group_22" data-name="Group 22"><path id="Path_29" fill="#fff" d="M454.281,180.322a1.067,1.067,0,1,0,.315.757A1.076,1.076,0,0,0,454.281,180.322Z" data-name="Path 29" transform="translate(-452.454 -180.008)"/></g></g><g id="Group_25" data-name="Group 25" transform="translate(0.007)"><g id="Group_24" data-name="Group 24"><path id="Path_30" fill="#fff" d="M54.493.313A1.071,1.071,0,0,0,53.736,0H27.406a1.07,1.07,0,0,0-1.07,1.07V4.133L16.191,6.851a1.07,1.07,0,0,0-.757,1.311l5.258,19.624-4.549,4.549a3.21,3.21,0,0,0-2.651-1.4H3.218A3.215,3.215,0,0,0,.007,34.144V51.59A3.215,3.215,0,0,0,3.218,54.8H13.493a3.216,3.216,0,0,0,3.116-2.438l1.273,1.11A5.393,5.393,0,0,0,21.426,54.8h32.31a1.07,1.07,0,0,0,1.07-1.07V1.07A1.071,1.071,0,0,0,54.493.313ZM14.563,51.59a1.072,1.072,0,0,1-1.07,1.07H3.218a1.072,1.072,0,0,1-1.07-1.07V34.144a1.072,1.072,0,0,1,1.07-1.07H7.285V45.4a1.07,1.07,0,1,0,2.141,0V33.074h4.067a1.072,1.072,0,0,1,1.07,1.07V51.59ZM17.779,8.642l8.558-2.293v3.966l-.717.192a1.07,1.07,0,0,0-.757,1.311,2.885,2.885,0,0,1-2.038,3.53,1.07,1.07,0,0,0-.756,1.313L26.24,32.109H24.092l-1.107-4.331a1.069,1.069,0,0,0-.179-.375Zm8.558,6.581v9.032l-1.952-7.228A5.014,5.014,0,0,0,26.336,15.223ZM41.713,52.66H21.426a3.252,3.252,0,0,1-2.138-.8L16.7,49.6V34.8l4.673-4.673.847,3.316a1.07,1.07,0,0,0,1.037.805H44.3a1.5,1.5,0,1,1,0,3H33.521a1.07,1.07,0,0,0,0,2.141H47.654a1.5,1.5,0,1,1,0,3H33.521a1.07,1.07,0,1,0,0,2.141H45.364a1.5,1.5,0,1,1,0,3H33.521a1.07,1.07,0,1,0,0,2.141h8.192a1.5,1.5,0,1,1,0,3Zm10.953,0H45.028a3.626,3.626,0,0,0,0-3h.336A3.637,3.637,0,0,0,48.617,44.4a3.636,3.636,0,0,0,1.958-5.677V25.153a1.07,1.07,0,1,0-2.141,0V37.333a3.64,3.64,0,0,0-.78-.085h-.035A3.637,3.637,0,0,0,44.3,32.11H42.583a5.122,5.122,0,1,0-4.024,0H32.708V11.759a5.038,5.038,0,0,0,3.837-3.837H44.6a5.038,5.038,0,0,0,3.837,3.837v3.328a1.07,1.07,0,0,0,2.141,0V10.8a1.07,1.07,0,0,0-1.07-1.07,2.885,2.885,0,0,1-2.882-2.882,1.07,1.07,0,0,0-1.07-1.07H35.59a1.07,1.07,0,0,0-1.07,1.07,2.885,2.885,0,0,1-2.882,2.882,1.07,1.07,0,0,0-1.07,1.07V32.11H28.477V2.142H52.666ZM40.571,30.382A2.982,2.982,0,1,1,43.553,27.4,2.985,2.985,0,0,1,40.571,30.382Z" data-name="Path 30" transform="translate(-0.007)"/></g></g></g></g></svg>