<svg xmlns="http://www.w3.org/2000/svg" xmlns:xlink="http://www.w3.org/1999/xlink" width="121" height="121" viewBox="0 0 121 121">
  <defs>
    <filter id="Ellipse_1" x="0" y="0" width="121" height="121" filterUnits="userSpaceOnUse">
      <feOffset dy="3" input="SourceAlpha"/>
      <feGaussianBlur stdDeviation="3" result="blur"/>
      <feFlood flood-color="#fff" flood-opacity="0.678"/>
      <feComposite operator="in" in2="blur"/>
      <feComposite in="SourceGraphic"/>
    </filter>
  </defs>
  <g id="Group_931" data-name="Group 931" transform="translate(-13876 9)">
    <g id="Group_928" data-name="Group 928" transform="translate(-61 -234)">
      <g id="Group_26" data-name="Group 26" transform="translate(13675 67)">
        <g transform="matrix(1, 0, 0, 1, 262, 158)" filter="url(#Ellipse_1)">
          <circle id="Ellipse_1-2" data-name="Ellipse 1" cx="51.5" cy="51.5" r="51.5" transform="translate(9 6)" fill="rgba(5,90,77,0.25)"/>
        </g>
      </g>
    </g>
    <g id="factory" transform="translate(13899.885 -25.263)" opacity="0.8">
      <g id="Group_930" data-name="Group 930" transform="translate(11.115 52.171)">
        <path id="Path_5376" data-name="Path 5376" d="M36.729,63.48V57.359L22.037,63.48V57.359H16.528v-8.57H12.855v8.57H9.182V42.667H5.509V57.359H0V85.518H51.421V57.359ZM20.2,81.845H16.528V78.172H20.2Zm7.346,0H23.874V78.172h3.673Zm7.346,0H31.22V78.172h3.673Zm12.855,0H38.565V74.5H12.855v7.346H3.673V61.031H18.364v7.958L23.45,66.87l9.606-4v6.121l5.086-2.119,9.606-4Z" transform="translate(0 -42.667)" fill="#fff"/>
      </g>
    </g>
  </g>
</svg>
